<?xml version="1.0"?>
<svg xmlns="http://www.w3.org/2000/svg" xmlns:xlink="http://www.w3.org/1999/xlink" version="1.1" id="Capa_1" x="0px" y="0px" viewBox="0 0 512 512" style="enable-background:new 0 0 512 512;" xml:space="preserve" width="512px" height="512px" class=""><g><g>
	<g>
		<path d="M512,119V0H392v40h53.716L262.5,223.216L122.837,83.553L40,170.28V0H0v512h512v-40H40V345.991l77.235-81.222l80.14,80.14    l65.125-65.125l104.5,104.5l105-105V328h40V209H392v40h53.716L367,327.716L290.784,251.5L472,70.284V119H512z M197.375,288.341    l-80.86-80.86L40,287.944v-59.753l83.494-87.414L234.216,251.5L197.375,288.341z" data-original="#000000" class="active-path" data-old_color="#afb9dd" fill="#afb9dd"/>
	</g>
</g></g> </svg>
